<?xml version="1.0" encoding="utf-8"?>
<!-- Generator: Adobe Illustrator 19.0.0, SVG Export Plug-In . SVG Version: 6.00 Build 0)  -->
<svg version="1.1" xmlns="http://www.w3.org/2000/svg" xmlns:xlink="http://www.w3.org/1999/xlink" x="0px" y="0px"
	 viewBox="0 0 35 11.6" style="enable-background:new 0 0 35 11.6;" xml:space="preserve">
<style type="text/css">
	.st0{display:none;}
	.st1{display:inline;}
	.st2{fill:#67A617;}
</style>
<g id="Layer_1" class="st0">
	<g id="XMLID_1_" class="st1">
		<path id="XMLID_3_" class="st2" d="M-309.2-94.1c12.4-0.6,23.9,0.1,35.2,1.8c15.7,2.3,30.5,6.7,43.1,16.9c3.4,2.7,6.2,5.8,8.9,9.1
			c5.1,6.4,8,12.6,3,20.9c-3.5,5.8-3.8,13-4.8,21.3c-6.7-13.1-12.5-25.1-23.9-32.8c11.2,14.1,17.6,30.3,21.7,47.7
			c1,4.3-0.2,5.1-4.3,5.3c-25.2,1-43.4-9.5-54.6-32.2c-4-8.2-7.1-16.9-9.9-25.6C-298.4-72.8-301.5-83.9-309.2-94.1z"/>
		<path id="XMLID_2_" class="st2" d="M-170.3-83.9c-34,13.8-50.6,41.4-45.5,77.8c1.6,11.5,1.2,22.4-1.6,33.5c-0.5,2-0.5,4.1-1.1,6
			c-1.6,4.9,0.6,5.8,5,5.8c4.7-0.1,3.8-3.2,4-5.9c3.1-36.4,16.4-67.6,46.3-90.3l9.3-5.1c-2.7,2.1-5.4,4.2-8.1,6.3
			c-1.5,1.4-3,2.8-4.4,4.2c-17.4,17.7-27.6,38.9-30.8,63.4c-0.3,2.2-2,5.5,2.8,5.7c17.9,0.5,34.7-2.5,49.1-14.2
			c13-10.5,20-24.8,25.9-39.9c7.5-19,10.6-39.9,23.3-57C-113.6-96.6-151.3-91.6-170.3-83.9z"/>
	</g>
</g>
<g id="Layer_2" class="st0">
	<g class="st1">
		<path id="XMLID_304_" d="M4.5-85.5c0.4-0.4,1-0.6,1.8-0.7c0.2,0,0.3,0,0.4,0v11.5c0,0.3,0.1,0.5,0.2,0.6C7.1-74,7.4-74,7.8-74v3.1
			c-0.6,0-1.1-0.1-1.6-0.3s-1-0.5-1.4-0.9c-0.4-0.4-0.7-0.8-0.9-1.3c-0.2-0.5-0.3-1.1-0.3-1.6v-7.8C3.6-84.2,3.9-85,4.5-85.5z"/>
		<path id="XMLID_306_" d="M12.2-71.1c-0.5-0.1-0.9-0.4-1.3-0.6c-0.8,0.6-1.6,0.9-2.5,0.9H7.6V-74h0.4c1-0.1,1.5-0.5,1.5-1.2v-0.1h0
			v-0.9c0-0.6,0.1-1.1,0.3-1.7c0.2-0.5,0.5-1,0.9-1.4c0.4-0.4,0.9-0.7,1.4-0.9c0.5-0.2,1.2-0.3,1.8-0.3h1.2c0.7,0,1.3,0.1,1.8,0.3
			s1,0.5,1.4,0.9c0.4,0.4,0.7,0.8,0.9,1.4c0.2,0.5,0.3,1.1,0.3,1.7v1.1c0,0.6-0.1,1.1-0.3,1.7c-0.2,0.5-0.5,1-0.9,1.4
			c-0.4,0.4-0.9,0.7-1.4,0.9s-1.1,0.3-1.8,0.3h-1.6C13-70.8,12.6-70.9,12.2-71.1z M16.3-75.2v-0.9c0-0.8-0.5-1.2-1.5-1.2h-0.7
			c-0.9,0.1-1.4,0.4-1.5,1.1v1c0,0.8,0.5,1.2,1.5,1.2h0.7C15.8-74,16.3-74.4,16.3-75.2z"/>
		<path id="XMLID_309_" d="M31.6-74h0.5v3.1h-1.2c-0.3,0-0.5-0.1-0.8-0.1v0.8c0,0.6-0.1,1.1-0.3,1.7c-0.2,0.5-0.5,1-0.9,1.4
			c-0.4,0.4-0.9,0.7-1.4,0.9c-0.2,0.1-0.4,0.1-0.6,0.2V-71c-0.3,0.1-0.6,0.1-0.9,0.1h-1.6c-0.7,0-1.3-0.1-1.8-0.3s-1-0.5-1.4-0.9
			c-0.4-0.4-0.7-0.8-0.9-1.4c-0.2-0.5-0.3-1.1-0.3-1.7v-1.1c0-0.6,0.1-1.1,0.3-1.7c0.2-0.5,0.5-1,0.9-1.4c0.4-0.4,0.9-0.7,1.4-0.9
			s1.2-0.3,1.8-0.3h1.2c0.7,0,1.3,0.1,1.8,0.3s1,0.5,1.4,0.9c0.4,0.4,0.7,0.8,0.9,1.4c0.2,0.5,0.3,1.1,0.3,1.7v1.4
			C30.3-74.3,30.8-74,31.6-74z M27-75.2v-1c-0.1-0.7-0.6-1-1.5-1.1h-0.7c-1,0.1-1.5,0.5-1.5,1.2v0.9c0,0.8,0.5,1.2,1.5,1.2h0.7
			C26.4-74,26.9-74.4,27-75.2z"/>
		<path id="XMLID_312_" d="M37.8-73.6c-0.1,0.8-0.4,1.4-0.7,1.8c-0.4,0.6-1.3,0.9-2.7,0.9h-2.8V-74h6.2
			C37.8-73.9,37.8-73.7,37.8-73.6z M35.4-66.4c-0.1,0.2-0.2,0.3-0.3,0.4s-0.3,0.2-0.4,0.3c-0.2,0.1-0.3,0.1-0.5,0.1
			c-0.2,0-0.4,0-0.5-0.1c-0.2-0.1-0.3-0.2-0.4-0.3s-0.2-0.3-0.3-0.4c-0.1-0.2-0.1-0.3-0.1-0.5c0-0.4,0.1-0.7,0.4-1
			c0.3-0.3,0.6-0.4,1-0.4c0.2,0,0.4,0,0.5,0.1c0.2,0.1,0.3,0.2,0.4,0.3c0.1,0.1,0.2,0.3,0.3,0.4c0.1,0.2,0.1,0.3,0.1,0.5
			C35.5-66.8,35.4-66.6,35.4-66.4z"/>
	</g>
	<g id="XMLID_108_" class="st1">
		<path id="XMLID_267_" d="M4.5-85.5c0.4-0.4,1-0.6,1.8-0.7c0.2,0,0.3,0,0.4,0v11.5c0,0.3,0.1,0.5,0.2,0.6C7.1-74,7.4-74,7.8-74v3.1
			c-0.6,0-1.1-0.1-1.6-0.3s-1-0.5-1.4-0.9c-0.4-0.4-0.7-0.8-0.9-1.3c-0.2-0.5-0.3-1.1-0.3-1.6v-7.8C3.6-84.2,3.9-85,4.5-85.5z"/>
		<path id="XMLID_269_" d="M12.2-71.1c-0.5-0.1-0.9-0.4-1.3-0.6c-0.8,0.6-1.6,0.9-2.5,0.9H7.6V-74h0.4c1-0.1,1.5-0.5,1.5-1.2v-0.1h0
			v-0.9c0-0.6,0.1-1.1,0.3-1.7c0.2-0.5,0.5-1,0.9-1.4c0.4-0.4,0.9-0.7,1.4-0.9c0.5-0.2,1.2-0.3,1.8-0.3h1.2c0.7,0,1.3,0.1,1.8,0.3
			s1,0.5,1.4,0.9c0.4,0.4,0.7,0.8,0.9,1.4c0.2,0.5,0.3,1.1,0.3,1.7v1.1c0,0.6-0.1,1.1-0.3,1.7c-0.2,0.5-0.5,1-0.9,1.4
			c-0.4,0.4-0.9,0.7-1.4,0.9s-1.1,0.3-1.8,0.3h-1.6C13-70.8,12.6-70.9,12.2-71.1z M16.3-75.2v-0.9c0-0.8-0.5-1.2-1.5-1.2h-0.7
			c-0.9,0.1-1.4,0.4-1.5,1.1v1c0,0.8,0.5,1.2,1.5,1.2h0.7C15.8-74,16.3-74.4,16.3-75.2z"/>
		<path id="XMLID_272_" d="M31.6-74h0.5v3.1h-1.2c-0.3,0-0.5-0.1-0.8-0.1v0.8c0,0.6-0.1,1.1-0.3,1.7c-0.2,0.5-0.5,1-0.9,1.4
			c-0.4,0.4-0.9,0.7-1.4,0.9c-0.2,0.1-0.4,0.1-0.6,0.2V-71c-0.3,0.1-0.6,0.1-0.9,0.1h-1.6c-0.7,0-1.3-0.1-1.8-0.3s-1-0.5-1.4-0.9
			c-0.4-0.4-0.7-0.8-0.9-1.4c-0.2-0.5-0.3-1.1-0.3-1.7v-1.1c0-0.6,0.1-1.1,0.3-1.7c0.2-0.5,0.5-1,0.9-1.4c0.4-0.4,0.9-0.7,1.4-0.9
			s1.2-0.3,1.8-0.3h1.2c0.7,0,1.3,0.1,1.8,0.3s1,0.5,1.4,0.9c0.4,0.4,0.7,0.8,0.9,1.4c0.2,0.5,0.3,1.1,0.3,1.7v1.4
			C30.3-74.3,30.8-74,31.6-74z M27-75.2v-1c-0.1-0.7-0.6-1-1.5-1.1h-0.7c-1,0.1-1.5,0.5-1.5,1.2v0.9c0,0.8,0.5,1.2,1.5,1.2h0.7
			C26.4-74,26.9-74.4,27-75.2z"/>
		<path id="XMLID_275_" d="M37.8-73.6c-0.1,0.8-0.4,1.4-0.7,1.8c-0.4,0.6-1.3,0.9-2.7,0.9h-2.8V-74h6.2
			C37.8-73.9,37.8-73.7,37.8-73.6z M35.4-66.4c-0.1,0.2-0.2,0.3-0.3,0.4s-0.3,0.2-0.4,0.3c-0.2,0.1-0.3,0.1-0.5,0.1
			c-0.2,0-0.4,0-0.5-0.1c-0.2-0.1-0.3-0.2-0.4-0.3s-0.2-0.3-0.3-0.4c-0.1-0.2-0.1-0.3-0.1-0.5c0-0.4,0.1-0.7,0.4-1
			c0.3-0.3,0.6-0.4,1-0.4c0.2,0,0.4,0,0.5,0.1c0.2,0.1,0.3,0.2,0.4,0.3c0.1,0.1,0.2,0.3,0.3,0.4c0.1,0.2,0.1,0.3,0.1,0.5
			C35.5-66.8,35.4-66.6,35.4-66.4z"/>
	</g>
</g>
<g id="Layer_3">
	<g id="XMLID_303_">
		<path id="XMLID_315_" d="M8.6,8.3c0,0.6-0.2,1.1-0.6,1.5c-0.4,0.4-0.9,0.6-1.5,0.6H1.9v-9h4.6C7.1,1.4,7.6,1.6,8,2
			c0.4,0.4,0.6,0.9,0.6,1.5v0.9c0,0.6-0.2,1.1-0.7,1.5c0.5,0.4,0.7,0.9,0.7,1.5V8.3z M7.6,4.3V3.4c0-0.3-0.1-0.5-0.3-0.7
			C7.1,2.5,6.8,2.4,6.6,2.4H3v3h3.6c0.3,0,0.5-0.1,0.7-0.3C7.5,4.9,7.6,4.6,7.6,4.3z M7.6,8.3V7.4c0-0.3-0.1-0.5-0.3-0.7
			C7.1,6.5,6.8,6.4,6.6,6.4H3v3h3.6c0.3,0,0.5-0.1,0.7-0.3C7.5,8.9,7.6,8.6,7.6,8.3z"/>
		<path id="XMLID_319_" d="M15.7,8.2c0,0.6-0.2,1.1-0.6,1.5c-0.4,0.4-0.9,0.6-1.5,0.6h-1.6c-0.6,0-1.1-0.2-1.5-0.6
			C10.2,9.3,10,8.8,10,8.2V5.8c0-0.6,0.2-1.1,0.6-1.5C11,4,11.5,3.8,12.1,3.8h1.6c0.6,0,1.1,0.2,1.5,0.6c0.4,0.4,0.6,0.9,0.6,1.5
			V8.2z M14.7,8.2V5.8c0-0.3-0.1-0.5-0.3-0.7c-0.2-0.2-0.5-0.3-0.7-0.3h-1.6c-0.3,0-0.5,0.1-0.7,0.3C11.1,5.3,11,5.6,11,5.8v2.4
			c0,0.3,0.1,0.5,0.3,0.7c0.2,0.2,0.4,0.3,0.7,0.3h1.6c0.3,0,0.5-0.1,0.7-0.3C14.6,8.8,14.7,8.5,14.7,8.2z"/>
		<path id="XMLID_322_" d="M26.1,10.3h-1.1V5.8c0-0.3-0.1-0.5-0.3-0.7c-0.2-0.2-0.4-0.3-0.7-0.3h-1.9v5.5H21V4.8h-3v5.5H17V3.8h7
			c0.6,0,1.1,0.2,1.5,0.6c0.4,0.4,0.6,0.9,0.6,1.5V10.3z"/>
		<path id="XMLID_324_" d="M33.1,10.3h-3.5c-0.6,0-1.1-0.2-1.5-0.6c-0.4-0.4-0.6-0.9-0.6-1.5V8.2c0-0.6,0.2-1.1,0.6-1.5
			c0.4-0.4,0.9-0.6,1.5-0.6H32L32,6V5.8c0-0.3-0.1-0.5-0.3-0.7c-0.2-0.2-0.4-0.3-0.7-0.3h-3.3v-1H31c0.6,0,1.1,0.2,1.5,0.6
			c0.4,0.4,0.6,0.9,0.6,1.4V10.3z M32,9.3l0-2.2h-2.5c-0.3,0-0.5,0.1-0.7,0.3c-0.2,0.2-0.3,0.4-0.3,0.7v0.1c0,0.3,0.1,0.5,0.3,0.7
			c0.2,0.2,0.5,0.3,0.7,0.3H32z"/>
	</g>
	<g id="XMLID_290_">
		<path id="XMLID_291_" d="M8.6,8.3c0,0.6-0.2,1.1-0.6,1.5c-0.4,0.4-0.9,0.6-1.5,0.6H1.9v-9h4.6C7.1,1.4,7.6,1.6,8,2
			c0.4,0.4,0.6,0.9,0.6,1.5v0.9c0,0.6-0.2,1.1-0.7,1.5c0.5,0.4,0.7,0.9,0.7,1.5V8.3z M7.6,4.3V3.4c0-0.3-0.1-0.5-0.3-0.7
			C7.1,2.5,6.8,2.4,6.6,2.4H3v3h3.6c0.3,0,0.5-0.1,0.7-0.3C7.5,4.9,7.6,4.6,7.6,4.3z M7.6,8.3V7.4c0-0.3-0.1-0.5-0.3-0.7
			C7.1,6.5,6.8,6.4,6.6,6.4H3v3h3.6c0.3,0,0.5-0.1,0.7-0.3C7.5,8.9,7.6,8.6,7.6,8.3z"/>
		<path id="XMLID_295_" d="M15.7,8.2c0,0.6-0.2,1.1-0.6,1.5c-0.4,0.4-0.9,0.6-1.5,0.6h-1.6c-0.6,0-1.1-0.2-1.5-0.6
			C10.2,9.3,10,8.8,10,8.2V5.8c0-0.6,0.2-1.1,0.6-1.5C11,4,11.5,3.8,12.1,3.8h1.6c0.6,0,1.1,0.2,1.5,0.6c0.4,0.4,0.6,0.9,0.6,1.5
			V8.2z M14.7,8.2V5.8c0-0.3-0.1-0.5-0.3-0.7c-0.2-0.2-0.5-0.3-0.7-0.3h-1.6c-0.3,0-0.5,0.1-0.7,0.3C11.1,5.3,11,5.6,11,5.8v2.4
			c0,0.3,0.1,0.5,0.3,0.7c0.2,0.2,0.4,0.3,0.7,0.3h1.6c0.3,0,0.5-0.1,0.7-0.3C14.6,8.8,14.7,8.5,14.7,8.2z"/>
		<path id="XMLID_298_" d="M26.1,10.3h-1.1V5.8c0-0.3-0.1-0.5-0.3-0.7c-0.2-0.2-0.4-0.3-0.7-0.3h-1.9v5.5H21V4.8h-3v5.5H17V3.8h7
			c0.6,0,1.1,0.2,1.5,0.6c0.4,0.4,0.6,0.9,0.6,1.5V10.3z"/>
		<path id="XMLID_300_" d="M33.1,10.3h-3.5c-0.6,0-1.1-0.2-1.5-0.6c-0.4-0.4-0.6-0.9-0.6-1.5V8.2c0-0.6,0.2-1.1,0.6-1.5
			c0.4-0.4,0.9-0.6,1.5-0.6H32L32,6V5.8c0-0.3-0.1-0.5-0.3-0.7c-0.2-0.2-0.4-0.3-0.7-0.3h-3.3v-1H31c0.6,0,1.1,0.2,1.5,0.6
			c0.4,0.4,0.6,0.9,0.6,1.4V10.3z M32,9.3l0-2.2h-2.5c-0.3,0-0.5,0.1-0.7,0.3c-0.2,0.2-0.3,0.4-0.3,0.7v0.1c0,0.3,0.1,0.5,0.3,0.7
			c0.2,0.2,0.5,0.3,0.7,0.3H32z"/>
	</g>
	<g id="XMLID_226_">
		<path id="XMLID_278_" d="M8.6,8.3c0,0.6-0.2,1.1-0.6,1.5c-0.4,0.4-0.9,0.6-1.5,0.6H1.9v-9h4.6C7.1,1.4,7.6,1.6,8,2
			c0.4,0.4,0.6,0.9,0.6,1.5v0.9c0,0.6-0.2,1.1-0.7,1.5c0.5,0.4,0.7,0.9,0.7,1.5V8.3z M7.6,4.3V3.4c0-0.3-0.1-0.5-0.3-0.7
			C7.1,2.5,6.8,2.4,6.6,2.4H3v3h3.6c0.3,0,0.5-0.1,0.7-0.3C7.5,4.9,7.6,4.6,7.6,4.3z M7.6,8.3V7.4c0-0.3-0.1-0.5-0.3-0.7
			C7.1,6.5,6.8,6.4,6.6,6.4H3v3h3.6c0.3,0,0.5-0.1,0.7-0.3C7.5,8.9,7.6,8.6,7.6,8.3z"/>
		<path id="XMLID_282_" d="M15.7,8.2c0,0.6-0.2,1.1-0.6,1.5c-0.4,0.4-0.9,0.6-1.5,0.6h-1.6c-0.6,0-1.1-0.2-1.5-0.6
			C10.2,9.3,10,8.8,10,8.2V5.8c0-0.6,0.2-1.1,0.6-1.5C11,4,11.5,3.8,12.1,3.8h1.6c0.6,0,1.1,0.2,1.5,0.6c0.4,0.4,0.6,0.9,0.6,1.5
			V8.2z M14.7,8.2V5.8c0-0.3-0.1-0.5-0.3-0.7c-0.2-0.2-0.5-0.3-0.7-0.3h-1.6c-0.3,0-0.5,0.1-0.7,0.3C11.1,5.3,11,5.6,11,5.8v2.4
			c0,0.3,0.1,0.5,0.3,0.7c0.2,0.2,0.4,0.3,0.7,0.3h1.6c0.3,0,0.5-0.1,0.7-0.3C14.6,8.8,14.7,8.5,14.7,8.2z"/>
		<path id="XMLID_285_" d="M26.1,10.3h-1.1V5.8c0-0.3-0.1-0.5-0.3-0.7c-0.2-0.2-0.4-0.3-0.7-0.3h-1.9v5.5H21V4.8h-3v5.5H17V3.8h7
			c0.6,0,1.1,0.2,1.5,0.6c0.4,0.4,0.6,0.9,0.6,1.5V10.3z"/>
		<path id="XMLID_287_" d="M33.1,10.3h-3.5c-0.6,0-1.1-0.2-1.5-0.6c-0.4-0.4-0.6-0.9-0.6-1.5V8.2c0-0.6,0.2-1.1,0.6-1.5
			c0.4-0.4,0.9-0.6,1.5-0.6H32L32,6V5.8c0-0.3-0.1-0.5-0.3-0.7c-0.2-0.2-0.4-0.3-0.7-0.3h-3.3v-1H31c0.6,0,1.1,0.2,1.5,0.6
			c0.4,0.4,0.6,0.9,0.6,1.4V10.3z M32,9.3l0-2.2h-2.5c-0.3,0-0.5,0.1-0.7,0.3c-0.2,0.2-0.3,0.4-0.3,0.7v0.1c0,0.3,0.1,0.5,0.3,0.7
			c0.2,0.2,0.5,0.3,0.7,0.3H32z"/>
	</g>
</g>
</svg>
