<?xml version="1.0" encoding="utf-8"?>
<!-- Generator: Adobe Illustrator 19.0.0, SVG Export Plug-In . SVG Version: 6.00 Build 0)  -->
<svg version="1.1" xmlns="http://www.w3.org/2000/svg" xmlns:xlink="http://www.w3.org/1999/xlink" x="0px" y="0px"
	 viewBox="0 0 36.8 22.6" style="enable-background:new 0 0 36.8 22.6;" xml:space="preserve">
<style type="text/css">
	.st0{display:none;}
	.st1{display:inline;}
	.st2{fill:#67A617;}
</style>
<g id="Layer_1" class="st0">
	<g id="XMLID_1_" class="st1">
		<path id="XMLID_3_" class="st2" d="M-335.6-50.9c12.4-0.6,23.9,0.1,35.2,1.8c15.7,2.3,30.5,6.7,43.1,16.9c3.4,2.7,6.2,5.8,8.9,9.1
			c5.1,6.4,8,12.6,3,20.9c-3.5,5.8-3.8,13-4.8,21.3C-256.9,6-262.7-6-274.1-13.7c11.2,14.1,17.6,30.3,21.7,47.7
			c1,4.3-0.2,5.1-4.3,5.3c-25.2,1-43.4-9.5-54.6-32.2c-4-8.2-7.1-16.9-9.9-25.6C-324.7-29.5-327.8-40.7-335.6-50.9z"/>
		<path id="XMLID_2_" class="st2" d="M-196.7-40.7c-34,13.8-50.6,41.4-45.5,77.8c1.6,11.5,1.2,22.4-1.6,33.5c-0.5,2-0.5,4.1-1.1,6
			c-1.6,4.9,0.6,5.8,5,5.8c4.7-0.1,3.8-3.2,4-5.9c3.1-36.4,16.4-67.6,46.3-90.3l9.3-5.1c-2.7,2.1-5.4,4.2-8.1,6.3
			c-1.5,1.4-3,2.8-4.4,4.2c-17.4,17.7-27.6,38.9-30.8,63.4c-0.3,2.2-2,5.5,2.8,5.7c17.9,0.5,34.7-2.5,49.1-14.2
			c13-10.5,20-24.8,25.9-39.9c7.5-19,10.6-39.9,23.3-57C-139.9-53.3-177.7-48.3-196.7-40.7z"/>
	</g>
</g>
<g id="Layer_2">
	<g id="XMLID_185_">
		<path id="XMLID_186_" d="M2.4,1.4c0.4-0.4,1-0.6,1.8-0.7c0.2,0,0.3,0,0.4,0V12c0,0.3,0.1,0.5,0.2,0.6c0.2,0.1,0.4,0.2,0.8,0.2V16
			c-0.6,0-1.1-0.1-1.6-0.3s-1-0.5-1.4-0.9c-0.4-0.4-0.7-0.8-0.9-1.3c-0.2-0.5-0.3-1.1-0.3-1.6V4C1.4,2.7,1.7,1.8,2.4,1.4z"/>
		<path id="XMLID_188_" d="M10.1,15.8c-0.5-0.1-0.9-0.4-1.3-0.6C8,15.7,7.1,16,6.2,16H5.4v-3.1h0.4c1-0.1,1.5-0.5,1.5-1.2v-0.1h0
			v-0.9c0-0.6,0.1-1.1,0.3-1.7c0.2-0.5,0.5-1,0.9-1.4C8.9,7.3,9.3,7,9.9,6.8c0.5-0.2,1.2-0.3,1.8-0.3h1.2c0.7,0,1.3,0.1,1.8,0.3
			s1,0.5,1.4,0.9C16.5,8.1,16.8,8.5,17,9c0.2,0.5,0.3,1.1,0.3,1.7v1.1c0,0.6-0.1,1.1-0.3,1.7c-0.2,0.5-0.5,1-0.9,1.4
			c-0.4,0.4-0.9,0.7-1.4,0.9S13.6,16,12.9,16h-1.6C10.9,16,10.5,15.9,10.1,15.8z M14.2,11.7v-0.9c0-0.8-0.5-1.2-1.5-1.2H12
			c-0.9,0.1-1.4,0.4-1.5,1.1v1c0,0.8,0.5,1.2,1.5,1.2h0.7C13.6,12.8,14.2,12.4,14.2,11.7z"/>
		<path id="XMLID_191_" d="M29.4,12.9h0.5V16h-1.2c-0.3,0-0.5-0.1-0.8-0.1v0.8c0,0.6-0.1,1.1-0.3,1.7c-0.2,0.5-0.5,1-0.9,1.4
			c-0.4,0.4-0.9,0.7-1.4,0.9c-0.2,0.1-0.4,0.1-0.6,0.2v-4.9C24.5,16,24.3,16,24,16h-1.6c-0.7,0-1.3-0.1-1.8-0.3s-1-0.5-1.4-0.9
			c-0.4-0.4-0.7-0.8-0.9-1.4c-0.2-0.5-0.3-1.1-0.3-1.7v-1.1c0-0.6,0.1-1.1,0.3-1.7c0.2-0.5,0.5-1,0.9-1.4C19.5,7.3,20,7,20.5,6.8
			s1.2-0.3,1.8-0.3h1.2c0.7,0,1.3,0.1,1.8,0.3s1,0.5,1.4,0.9c0.4,0.4,0.7,0.8,0.9,1.4c0.2,0.5,0.3,1.1,0.3,1.7v1.4
			C28.2,12.6,28.6,12.8,29.4,12.9z M24.8,11.7v-1c-0.1-0.7-0.6-1-1.5-1.1h-0.7c-1,0.1-1.5,0.5-1.5,1.2v0.9c0,0.8,0.5,1.2,1.5,1.2
			h0.7C24.3,12.8,24.8,12.4,24.8,11.7z"/>
		<path id="XMLID_194_" d="M35.6,13.3c-0.1,0.8-0.4,1.4-0.7,1.8c-0.4,0.6-1.3,0.9-2.7,0.9h-2.8v-3.1h6.2
			C35.6,13,35.6,13.1,35.6,13.3z M33.2,20.4c-0.1,0.2-0.2,0.3-0.3,0.4s-0.3,0.2-0.4,0.3c-0.2,0.1-0.3,0.1-0.5,0.1
			c-0.2,0-0.4,0-0.5-0.1c-0.2-0.1-0.3-0.2-0.4-0.3s-0.2-0.3-0.3-0.4c-0.1-0.2-0.1-0.3-0.1-0.5c0-0.4,0.1-0.7,0.4-1
			c0.3-0.3,0.6-0.4,1-0.4c0.2,0,0.4,0,0.5,0.1c0.2,0.1,0.3,0.2,0.4,0.3c0.1,0.1,0.2,0.3,0.3,0.4c0.1,0.2,0.1,0.3,0.1,0.5
			C33.3,20,33.3,20.2,33.2,20.4z"/>
	</g>
	<g id="XMLID_173_">
		<path id="XMLID_174_" d="M2.4,1.4c0.4-0.4,1-0.6,1.8-0.7c0.2,0,0.3,0,0.4,0V12c0,0.3,0.1,0.5,0.2,0.6c0.2,0.1,0.4,0.2,0.8,0.2V16
			c-0.6,0-1.1-0.1-1.6-0.3s-1-0.5-1.4-0.9c-0.4-0.4-0.7-0.8-0.9-1.3c-0.2-0.5-0.3-1.1-0.3-1.6V4C1.4,2.7,1.7,1.8,2.4,1.4z"/>
		<path id="XMLID_176_" d="M10.1,15.8c-0.5-0.1-0.9-0.4-1.3-0.6C8,15.7,7.1,16,6.2,16H5.4v-3.1h0.4c1-0.1,1.5-0.5,1.5-1.2v-0.1h0
			v-0.9c0-0.6,0.1-1.1,0.3-1.7c0.2-0.5,0.5-1,0.9-1.4C8.9,7.3,9.3,7,9.9,6.8c0.5-0.2,1.2-0.3,1.8-0.3h1.2c0.7,0,1.3,0.1,1.8,0.3
			s1,0.5,1.4,0.9C16.5,8.1,16.8,8.5,17,9c0.2,0.5,0.3,1.1,0.3,1.7v1.1c0,0.6-0.1,1.1-0.3,1.7c-0.2,0.5-0.5,1-0.9,1.4
			c-0.4,0.4-0.9,0.7-1.4,0.9S13.6,16,12.9,16h-1.6C10.9,16,10.5,15.9,10.1,15.8z M14.2,11.7v-0.9c0-0.8-0.5-1.2-1.5-1.2H12
			c-0.9,0.1-1.4,0.4-1.5,1.1v1c0,0.8,0.5,1.2,1.5,1.2h0.7C13.6,12.8,14.2,12.4,14.2,11.7z"/>
		<path id="XMLID_179_" d="M29.4,12.9h0.5V16h-1.2c-0.3,0-0.5-0.1-0.8-0.1v0.8c0,0.6-0.1,1.1-0.3,1.7c-0.2,0.5-0.5,1-0.9,1.4
			c-0.4,0.4-0.9,0.7-1.4,0.9c-0.2,0.1-0.4,0.1-0.6,0.2v-4.9C24.5,16,24.3,16,24,16h-1.6c-0.7,0-1.3-0.1-1.8-0.3s-1-0.5-1.4-0.9
			c-0.4-0.4-0.7-0.8-0.9-1.4c-0.2-0.5-0.3-1.1-0.3-1.7v-1.1c0-0.6,0.1-1.1,0.3-1.7c0.2-0.5,0.5-1,0.9-1.4C19.5,7.3,20,7,20.5,6.8
			s1.2-0.3,1.8-0.3h1.2c0.7,0,1.3,0.1,1.8,0.3s1,0.5,1.4,0.9c0.4,0.4,0.7,0.8,0.9,1.4c0.2,0.5,0.3,1.1,0.3,1.7v1.4
			C28.2,12.6,28.6,12.8,29.4,12.9z M24.8,11.7v-1c-0.1-0.7-0.6-1-1.5-1.1h-0.7c-1,0.1-1.5,0.5-1.5,1.2v0.9c0,0.8,0.5,1.2,1.5,1.2
			h0.7C24.3,12.8,24.8,12.4,24.8,11.7z"/>
		<path id="XMLID_182_" d="M35.6,13.3c-0.1,0.8-0.4,1.4-0.7,1.8c-0.4,0.6-1.3,0.9-2.7,0.9h-2.8v-3.1h6.2
			C35.6,13,35.6,13.1,35.6,13.3z M33.2,20.4c-0.1,0.2-0.2,0.3-0.3,0.4s-0.3,0.2-0.4,0.3c-0.2,0.1-0.3,0.1-0.5,0.1
			c-0.2,0-0.4,0-0.5-0.1c-0.2-0.1-0.3-0.2-0.4-0.3s-0.2-0.3-0.3-0.4c-0.1-0.2-0.1-0.3-0.1-0.5c0-0.4,0.1-0.7,0.4-1
			c0.3-0.3,0.6-0.4,1-0.4c0.2,0,0.4,0,0.5,0.1c0.2,0.1,0.3,0.2,0.4,0.3c0.1,0.1,0.2,0.3,0.3,0.4c0.1,0.2,0.1,0.3,0.1,0.5
			C33.3,20,33.3,20.2,33.2,20.4z"/>
	</g>
	<g id="XMLID_108_">
		<path id="XMLID_162_" d="M2.4,1.4c0.4-0.4,1-0.6,1.8-0.7c0.2,0,0.3,0,0.4,0V12c0,0.3,0.1,0.5,0.2,0.6c0.2,0.1,0.4,0.2,0.8,0.2V16
			c-0.6,0-1.1-0.1-1.6-0.3s-1-0.5-1.4-0.9c-0.4-0.4-0.7-0.8-0.9-1.3c-0.2-0.5-0.3-1.1-0.3-1.6V4C1.4,2.7,1.7,1.8,2.4,1.4z"/>
		<path id="XMLID_164_" d="M10.1,15.8c-0.5-0.1-0.9-0.4-1.3-0.6C8,15.7,7.1,16,6.2,16H5.4v-3.1h0.4c1-0.1,1.5-0.5,1.5-1.2v-0.1h0
			v-0.9c0-0.6,0.1-1.1,0.3-1.7c0.2-0.5,0.5-1,0.9-1.4C8.9,7.3,9.3,7,9.9,6.8c0.5-0.2,1.2-0.3,1.8-0.3h1.2c0.7,0,1.3,0.1,1.8,0.3
			s1,0.5,1.4,0.9C16.5,8.1,16.8,8.5,17,9c0.2,0.5,0.3,1.1,0.3,1.7v1.1c0,0.6-0.1,1.1-0.3,1.7c-0.2,0.5-0.5,1-0.9,1.4
			c-0.4,0.4-0.9,0.7-1.4,0.9S13.6,16,12.9,16h-1.6C10.9,16,10.5,15.9,10.1,15.8z M14.2,11.7v-0.9c0-0.8-0.5-1.2-1.5-1.2H12
			c-0.9,0.1-1.4,0.4-1.5,1.1v1c0,0.8,0.5,1.2,1.5,1.2h0.7C13.6,12.8,14.2,12.4,14.2,11.7z"/>
		<path id="XMLID_167_" d="M29.4,12.9h0.5V16h-1.2c-0.3,0-0.5-0.1-0.8-0.1v0.8c0,0.6-0.1,1.1-0.3,1.7c-0.2,0.5-0.5,1-0.9,1.4
			c-0.4,0.4-0.9,0.7-1.4,0.9c-0.2,0.1-0.4,0.1-0.6,0.2v-4.9C24.5,16,24.3,16,24,16h-1.6c-0.7,0-1.3-0.1-1.8-0.3s-1-0.5-1.4-0.9
			c-0.4-0.4-0.7-0.8-0.9-1.4c-0.2-0.5-0.3-1.1-0.3-1.7v-1.1c0-0.6,0.1-1.1,0.3-1.7c0.2-0.5,0.5-1,0.9-1.4C19.5,7.3,20,7,20.5,6.8
			s1.2-0.3,1.8-0.3h1.2c0.7,0,1.3,0.1,1.8,0.3s1,0.5,1.4,0.9c0.4,0.4,0.7,0.8,0.9,1.4c0.2,0.5,0.3,1.1,0.3,1.7v1.4
			C28.2,12.6,28.6,12.8,29.4,12.9z M24.8,11.7v-1c-0.1-0.7-0.6-1-1.5-1.1h-0.7c-1,0.1-1.5,0.5-1.5,1.2v0.9c0,0.8,0.5,1.2,1.5,1.2
			h0.7C24.3,12.8,24.8,12.4,24.8,11.7z"/>
		<path id="XMLID_170_" d="M35.6,13.3c-0.1,0.8-0.4,1.4-0.7,1.8c-0.4,0.6-1.3,0.9-2.7,0.9h-2.8v-3.1h6.2
			C35.6,13,35.6,13.1,35.6,13.3z M33.2,20.4c-0.1,0.2-0.2,0.3-0.3,0.4s-0.3,0.2-0.4,0.3c-0.2,0.1-0.3,0.1-0.5,0.1
			c-0.2,0-0.4,0-0.5-0.1c-0.2-0.1-0.3-0.2-0.4-0.3s-0.2-0.3-0.3-0.4c-0.1-0.2-0.1-0.3-0.1-0.5c0-0.4,0.1-0.7,0.4-1
			c0.3-0.3,0.6-0.4,1-0.4c0.2,0,0.4,0,0.5,0.1c0.2,0.1,0.3,0.2,0.4,0.3c0.1,0.1,0.2,0.3,0.3,0.4c0.1,0.2,0.1,0.3,0.1,0.5
			C33.3,20,33.3,20.2,33.2,20.4z"/>
	</g>
</g>
</svg>
