<?xml version="1.0" encoding="utf-8"?>
<!-- Generator: Adobe Illustrator 19.0.0, SVG Export Plug-In . SVG Version: 6.00 Build 0)  -->
<svg version="1.1" id="Layer_1" xmlns="http://www.w3.org/2000/svg" xmlns:xlink="http://www.w3.org/1999/xlink" x="0px" y="0px"
	 viewBox="0 0 217.5 138.7" style="enable-background:new 0 0 217.5 138.7;" xml:space="preserve">
<style type="text/css">
	.st0{fill:#67A617;}
</style>
<g id="XMLID_1_">
	<path id="XMLID_3_" class="st0" d="M2.4,2.4c12.4-0.6,23.9,0.1,35.2,1.8c15.7,2.3,30.5,6.7,43.1,16.9c3.4,2.7,6.2,5.8,8.9,9.1
		c5.1,6.4,8,12.6,3,20.9c-3.5,5.8-3.8,13-4.8,21.3c-6.7-13.1-12.5-25.1-23.9-32.8c11.2,14.1,17.6,30.3,21.7,47.7
		c1,4.3-0.2,5.1-4.3,5.3c-25.2,1-43.4-9.5-54.6-32.2c-4-8.2-7.1-16.9-9.9-25.6C13.3,23.8,10.2,12.7,2.4,2.4z"/>
	<path id="XMLID_2_" class="st0" d="M141.4,12.7c-34,13.8-50.6,41.4-45.5,77.8c1.6,11.5,1.2,22.4-1.6,33.5c-0.5,2-0.5,4.1-1.1,6
		c-1.6,4.9,0.6,5.8,5,5.8c4.7-0.1,3.8-3.2,4-5.9c3.1-36.4,16.4-67.6,46.3-90.3l9.3-5.1c-2.7,2.1-5.4,4.2-8.1,6.3
		c-1.5,1.4-3,2.8-4.4,4.2c-17.4,17.7-27.6,38.9-30.8,63.4c-0.3,2.2-2,5.5,2.8,5.7c17.9,0.5,34.7-2.5,49.1-14.2
		c13-10.5,20-24.8,25.9-39.9c7.5-19,10.6-39.9,23.3-57C198.1,0,160.3,5,141.4,12.7z"/>
</g>
</svg>
