<?xml version="1.0" encoding="utf-8"?>
<!-- Generator: Adobe Illustrator 19.0.0, SVG Export Plug-In . SVG Version: 6.00 Build 0)  -->
<svg version="1.1" id="Layer_1" xmlns="http://www.w3.org/2000/svg" xmlns:xlink="http://www.w3.org/1999/xlink" x="0px" y="0px"
	 viewBox="0 0 1024 1024" style="enable-background:new 0 0 1024 1024;" xml:space="preserve">
<style type="text/css">
	.st0{fill:#22A958;}
	.st1{fill:#F8F9F7;}
</style>
<rect id="XMLID_4_" class="st0" width="1024" height="1024"/>
<g id="XMLID_1_">
	<path id="XMLID_3_" class="st1" d="M87.2,247c49.5-2.2,95.2,0.5,140.5,7.1c62.4,9.1,121.6,26.8,171.9,67.5
		c13.4,10.8,24.8,23.1,35.5,36.5c20.3,25.5,31.8,50.2,11.8,83.2c-14,23-15.3,51.8-19.3,84.8c-26.7-52.3-50-100.1-95.4-130.8
		c44.6,56.4,70.4,120.7,86.3,190c4,17.2-0.9,20.4-17,21c-100.4,3.9-173.2-38-217.6-128.5c-16.1-32.8-28.2-67.2-39.4-101.9
		C130.5,332.2,118.2,287.8,87.2,247z"/>
	<path id="XMLID_2_" class="st1" d="M641,287.8c-135.6,54.9-201.9,164.9-181.4,310.1c6.5,45.9,4.9,89.4-6.4,133.4
		c-2,7.8-2,16.2-4.5,23.8c-6.6,19.7,2.2,23.3,20,23c18.6-0.3,15.1-12.7,16-23.3c12.2-145.2,65.3-269.5,184.4-359.8l37-20.5
		c-10.8,8.4-21.6,16.7-32.3,25.1c-5.8,5.6-11.8,11.1-17.5,16.9c-69.6,70.4-110,155.1-123,252.9c-1.2,8.8-7.8,22.1,11.2,22.7
		c71.4,2,138.4-9.8,196-56.6c51.7-42.1,79.6-99,103.3-158.9c30.1-75.9,42.4-158.9,93-227.2C867.2,237.3,716.7,257.2,641,287.8z"/>
</g>
</svg>
